<svg width="15" height="15" viewBox="0 0 15 15" fill="none" xmlns="http://www.w3.org/2000/svg">
<g clip-path="url(#clip0_0_5294)">
<path d="M13.7574 2.36523C12.1261 0.812966 9.47106 0.812966 7.83931 2.36488L7.50002 2.68715L7.16109 2.36503C5.52916 0.812908 2.87443 0.813083 1.2425 2.36503C0.441233 3.12716 -7.62939e-06 4.13804 -7.62939e-06 5.21119C-7.62939e-06 6.28468 0.441233 7.2954 1.24262 8.05785L7.13771 13.6545C7.2391 13.751 7.36965 13.7991 7.49999 13.7991C7.63033 13.7991 7.7607 13.7508 7.86228 13.6543L13.7574 8.05785C14.5586 7.29557 15 6.28471 15 5.21136C15 4.13804 14.5586 3.12733 13.7574 2.36523ZM13.0321 7.29469L7.49999 12.547L1.96807 7.29487C1.37771 6.73348 1.05263 5.99347 1.05263 5.21136C1.05263 4.42926 1.37771 3.68925 1.96807 3.12786C2.58386 2.54189 3.39263 2.2491 4.20157 2.2491C5.0107 2.2491 5.81982 2.54224 6.43561 3.12821L7.13736 3.79471C7.3405 3.98787 7.65928 3.98787 7.86245 3.79471L8.56438 3.12786C9.79613 1.9561 11.8002 1.9561 13.0319 3.12786C13.6221 3.68928 13.9474 4.42926 13.9474 5.21136C13.9474 5.99347 13.6221 6.73331 13.0321 7.29469Z" fill="#696969"/>
</g>
<defs>
<clipPath id="clip0_0_5294">
<rect width="15" height="15" fill="white"/>
</clipPath>
</defs>
</svg>
